<svg width="91" height="25" viewBox="0 0 91 25" fill="none" xmlns="http://www.w3.org/2000/svg">
<path d="M2.75406 24.276C1.87006 24.276 1.19006 24.038 0.71406 23.562C0.23806 23.086 5.96493e-05 22.406 5.96493e-05 21.522V3.06C5.96493e-05 2.176 0.23806 1.496 0.71406 1.02C1.19006 0.544 1.87006 0.306 2.75406 0.306H9.38406C13.4867 0.306 16.6487 1.34867 18.8701 3.434C21.1141 5.49667 22.2361 8.44333 22.2361 12.274C22.2361 14.2007 21.9414 15.912 21.3521 17.408C20.7854 18.8813 19.9581 20.128 18.8701 21.148C17.7821 22.168 16.4447 22.95 14.8581 23.494C13.2714 24.0153 11.4467 24.276 9.38406 24.276H2.75406ZM5.27006 19.958H9.07806C10.3701 19.958 11.4921 19.7993 12.4441 19.482C13.3961 19.1647 14.1894 18.6887 14.8241 18.054C15.4587 17.4193 15.9347 16.626 16.2521 15.674C16.5694 14.6993 16.7281 13.566 16.7281 12.274C16.7281 9.69 16.0821 7.77467 14.7901 6.528C13.5207 5.25867 11.6167 4.624 9.07806 4.624H5.27006V19.958ZM29.0841 24.276C28.2001 24.276 27.5201 24.038 27.0441 23.562C26.5681 23.086 26.3301 22.406 26.3301 21.522V3.06C26.3301 2.176 26.5681 1.496 27.0441 1.02C27.5201 0.544 28.2001 0.306 29.0841 0.306H40.9501C41.6301 0.306 42.1401 0.487333 42.4801 0.850001C42.8428 1.19 43.0241 1.68867 43.0241 2.346C43.0241 3.026 42.8428 3.54733 42.4801 3.91C42.1401 4.25 41.6301 4.42 40.9501 4.42H31.3621V10.03H40.1681C40.8708 10.03 41.3921 10.2113 41.7321 10.574C42.0948 10.914 42.2761 11.424 42.2761 12.104C42.2761 12.784 42.0948 13.3053 41.7321 13.668C41.3921 14.008 40.8708 14.178 40.1681 14.178H31.3621V20.162H40.9501C41.6301 20.162 42.1401 20.3433 42.4801 20.706C42.8428 21.046 43.0241 21.5447 43.0241 22.202C43.0241 22.882 42.8428 23.4033 42.4801 23.766C42.1401 24.106 41.6301 24.276 40.9501 24.276H29.0841ZM56.8781 24.582C56.1527 24.582 55.5521 24.4233 55.0761 24.106C54.6227 23.766 54.2487 23.256 53.9541 22.576L45.3861 3.536C45.0687 2.856 44.9781 2.25533 45.1141 1.734C45.2501 1.19 45.5334 0.770666 45.9641 0.475999C46.3947 0.158666 46.9161 -5.96046e-07 47.5281 -5.96046e-07C48.2987 -5.96046e-07 48.8881 0.181333 49.2961 0.544001C49.7041 0.884 50.0441 1.394 50.3161 2.074L57.8301 19.448H56.1301L63.6441 2.04C63.9387 1.36 64.2901 0.85 64.6981 0.509999C65.1061 0.169999 65.6727 -5.96046e-07 66.3981 -5.96046e-07C67.0101 -5.96046e-07 67.5087 0.158666 67.8941 0.475999C68.3021 0.770666 68.5514 1.19 68.6421 1.734C68.7554 2.25533 68.6647 2.856 68.3701 3.536L59.8021 22.576C59.4847 23.256 59.0994 23.766 58.6461 24.106C58.2154 24.4233 57.6261 24.582 56.8781 24.582ZM72.6172 24.582C71.9372 24.582 71.3705 24.4007 70.9172 24.038C70.4865 23.6527 70.2372 23.188 70.1692 22.644C70.1012 22.0773 70.2825 21.4993 70.7132 20.91L78.2272 10.948V13.294L71.0192 3.706C70.5885 3.094 70.3958 2.516 70.4412 1.972C70.5092 1.40533 70.7585 0.940666 71.1892 0.578C71.6425 0.192666 72.1978 -5.96046e-07 72.8552 -5.96046e-07C73.4218 -5.96046e-07 73.9092 0.136 74.3172 0.408C74.7478 0.679999 75.1785 1.11067 75.6092 1.7L81.2192 9.452H79.5192L85.0952 1.7C85.5258 1.088 85.9565 0.657333 86.3872 0.408C86.8178 0.136 87.3165 -5.96046e-07 87.8832 -5.96046e-07C88.5632 -5.96046e-07 89.1185 0.181333 89.5492 0.544001C90.0025 0.906667 90.2518 1.37133 90.2972 1.938C90.3652 2.482 90.1725 3.07133 89.7192 3.706L82.4772 13.294V10.948L89.9572 20.91C90.4105 21.4993 90.6032 22.0773 90.5352 22.644C90.4898 23.188 90.2405 23.6527 89.7872 24.038C89.3565 24.4007 88.7898 24.582 88.0872 24.582C87.5432 24.582 87.0558 24.446 86.6252 24.174C86.2172 23.902 85.7865 23.46 85.3332 22.848L79.4852 14.79H81.2192L75.3712 22.848C74.9405 23.46 74.5098 23.902 74.0792 24.174C73.6485 24.446 73.1612 24.582 72.6172 24.582Z" fill="black"/>
</svg>
